<svg xmlns="http://www.w3.org/2000/svg" viewBox="0 0 4516 2540"
 xmlns:xlink="http://www.w3.org/1999/xlink">  <!-- 4516 2540 -->
 <defs>
  <style type="text/css">
   <![CDATA[
    .str1 {stroke:black;stroke-width:10}
    .str2 {stroke:black;stroke-width:10;stroke-linecap:round}
    .str0 {stroke:black;stroke-width:18}
    .str3 {stroke:black;stroke-width:18;stroke-linecap:round}
    .fil17 {fill:none}
    .fil10 {fill:#0EC0EE}
    .fil21 {fill:#121212}
    .fil15 {fill:#212121}
    .fil16 {fill:#2B2B2B}
    .fil9 {fill:#7AD6ED}
    .fil2 {fill:#88A8BD}
    .fil6 {fill:#943C0E}
    .fil11 {fill:#95670F}
    .fil8 {fill:#BA831E}
    .fil20 {fill:#CBCBCB}
    .fil1 {fill:#D3C1EB}
    .fil19 {fill:#DADADA}
    .fil0 {fill:#E0D9EB}
    .fil5 {fill:#E7A449}
    .fil4 {fill:#E7C849}
    .fil3 {fill:#E9D47B}
    .fil7 {fill:#EB6810}
    .fil18 {fill:#EBEBEB}
    .fil14 {fill:#ECBF0E}
    .fil12 {fill:white}
    .fil13 {fill:#176A22;fill-rule:nonzero}
    
    @media only screen and (max-width:400px) {
     #mimo {
      display: none;
     }
    }
    
   ]]>
  </style>
 </defs>
 <g id="scena1">
  <metadata id="CorelCorpID_0Corel-Layer"/>
  <g id="scena1_pozadi">
   <rect class="fil0" width="4516" height="2540"/>
   <path class="fil1" d="M0 0l124 0c911,1183 2484,1559 4392,1485l0 1055 -4516 0 0 -2540z"/>
   <path class="fil2" d="M0 1583c371,25 772,7 1200,-14 1150,-56 2246,-15 3315,49l0 922 -4516 0 0 -957z"/>
   <rect class="fil3" x="638" y="1252" width="1185" height="65"/>
   <polygon class="fil4" points="768,1317 862,1868 1590,1868 1680,1317 "/>
   <polygon class="fil5" points="796,1483 862,1868 1590,1868 1653,1483 "/>
   <circle class="fil6" cx="1231" cy="1396" r="30"/>
   <circle class="fil6" cx="1231" cy="1597" r="30"/>
   <polygon class="fil7" points="832,1695 862,1868 1590,1868 1618,1695 "/>
   <circle class="fil6" cx="1231" cy="1789" r="30"/>
   <path class="fil6" d="M1094 595c95,11 193,13 294,3 -114,8 -153,154 -19,300 82,89 129,173 -27,356l-198 -3c-99,-120 -154,-253 -21,-375 54,-49 138,-230 -29,-281z"/>
   <g>
    <circle class="fil7" cx="997" cy="274" r="57"/>
    <circle class="fil7" cx="1116" cy="236" r="55"/>
    <circle class="fil7" cx="1017" cy="407" r="44"/>
    <circle class="fil7" cx="1116" cy="427" r="42"/>
    <circle class="fil7" cx="1182" cy="365" r="40"/>
    <circle class="fil7" cx="1160" cy="305" r="20"/>
   </g>
   <g>
    <circle class="fil7" cx="1332" cy="353" r="28"/>
    <circle class="fil7" cx="1280" cy="386" r="24"/>
    <circle class="fil7" cx="1255" cy="451" r="22"/>
    <circle class="fil7" cx="1322" cy="515" r="33"/>
    <circle class="fil7" cx="1390" cy="401" r="33"/>
    <circle class="fil7" cx="1365" cy="482" r="16"/>
    <circle class="fil7" cx="1401" cy="452" r="16"/>
    <circle class="fil7" cx="1287" cy="478" r="14"/>
   </g>
   <rect class="fil8" x="1897" y="210" width="1633" height="1044"/>
   <rect class="fil9" x="2026" y="290" width="578" height="910"/>
   <rect class="fil9" x="2775" y="290" width="594" height="910"/>
   <path class="fil10" d="M2297 1200l-238 0 -34 -45 0 -314 271 358zm307 -39l0 39 -208 0 -370 -488 0 -314 578 763zm-414 -871l414 0 0 548 -414 -548zm1078 910l-104 0 -388 -444 0 -120 492 564zm-327 -910l236 0 193 221 0 270 -429 -492z"/>
   <polygon class="fil11" points="1854,1912 1983,1515 3547,1515 3547,881 3638,881 3638,1478 3790,1941 3624,1941 3624,1708 3547,1708 1983,1708 1983,1912 "/>
   <path class="fil12" d="M1749 1517c132,3 196,-60 161,-211 -54,-233 105,-261 450,-319 236,-39 425,10 608,54 78,55 80,247 46,351 -44,136 -170,202 -429,193 -587,113 -755,42 -835,-67z"/>
   <path class="fil12" d="M2956 1525c13,-10 21,-12 35,-21 -16,-97 73,-184 211,-292 108,-70 199,-99 278,-104 58,-2 93,-21 102,-59 59,3 4,112 -40,190 -79,163 -198,233 -334,260 -99,32 -168,44 -241,41 -20,-1 -18,-10 -11,-15z"/>
   <path class="fil13" d="M1150 452l58 151c-5,0 -11,0 -16,-1l-54 -140c5,-3 9,-7 12,-11z"/>
   <path class="fil13" d="M1304 544l-22 60c-5,0 -11,0 -16,0l26 -73c3,5 7,9 12,12z"/>
   <circle class="fil14" cx="1087" cy="338" r="50"/>
   <circle class="fil14" cx="1324" cy="439" r="33"/>
  </g>
  <g id="mimo" transform="translate(1000,0)" onclick="this.style.display='none'">
   <g id="leva_noha">
    <path class="fil15 str0" d="M2175 2084c1,20 9,39 19,60 23,45 45,90 68,135 18,35 15,61 -46,87 -83,35 -146,-46 -162,-151 -12,-82 22,-134 70,-157 35,-16 49,-3 51,27z"/>
    <path class="fil15" d="M2175 2084c1,20 9,39 19,60 23,45 45,90 68,135 18,35 15,61 -46,87 -83,35 -146,-46 -162,-151 -12,-82 22,-134 70,-157 35,-16 49,-3 51,27z"/>
    <path class="fil16" d="M2197 2149c22,43 43,86 65,130 18,35 15,61 -46,87 -68,28 -123,-21 -149,-98 54,3 91,-10 131,-118z"/>
    <path class="fil17 str0" d="M2175 2084c1,20 9,39 19,60 23,45 45,90 68,135 18,35 15,61 -46,87 -83,35 -146,-46 -162,-151 -12,-82 22,-134 70,-157 35,-16 49,-3 51,27z"/>
   </g>
   <g id="prava_noha">
    <path class="fil15 str0" d="M1947 2113c-12,15 -19,33 -24,53 -12,46 -25,91 -38,137 -10,36 -28,52 -86,31 -79,-28 -73,-124 -18,-208 43,-65 100,-80 148,-65 34,10 36,29 19,51z"/>
    <path class="fil15" d="M1947 2113c-12,15 -19,33 -24,53 -12,46 -25,91 -38,137 -10,36 -28,52 -86,31 -79,-28 -73,-124 -18,-208 43,-65 100,-80 148,-65 34,10 36,29 19,51z"/>
    <path class="fil16" d="M1901 2246c-5,19 -11,38 -16,58 -10,36 -28,52 -86,31 -63,-22 -72,-88 -45,-156 34,46 77,62 148,67z"/>
    <path class="fil17 str0" d="M1947 2113c-12,15 -19,33 -24,53 -12,46 -25,91 -38,137 -10,36 -28,52 -86,31 -79,-28 -73,-124 -18,-208 43,-65 100,-80 148,-65 34,10 36,29 19,51z"/>
   </g>
   <g id="leva_ruka">
    <path class="fil15 str0" d="M2267 1884c-91,-57 -197,-12 -105,100 32,40 121,98 164,37 26,-36 40,-76 -58,-137z"/>
    <path class="fil15" d="M2267 1884c-91,-57 -197,-12 -105,100 32,40 121,98 164,37 26,-36 40,-76 -58,-137z"/>
    <path class="fil16" d="M2209 2025c39,24 87,36 116,-4 21,-30 35,-63 -19,-109 -55,9 -87,44 -97,113z"/>
    <path class="fil17 str0" d="M2267 1884c-91,-57 -197,-12 -105,100 32,40 121,98 164,37 26,-36 40,-76 -58,-137z"/>
   </g>
   <g id="prava_ruka">
    <path class="fil15 str0" d="M1723 1852c-79,33 -106,75 -84,127 25,59 85,38 149,19 103,-31 130,-73 116,-124 -19,-72 -102,-55 -181,-22z"/>
    <path class="fil15" d="M1723 1852c-79,33 -106,75 -84,127 25,59 85,38 149,19 103,-31 130,-73 116,-124 -19,-72 -102,-55 -181,-22z"/>
    <path class="fil16" d="M1677 1876c-43,29 -55,63 -38,103 22,51 69,43 122,27 -5,-75 -33,-116 -84,-130z"/>
    <path class="fil17 str0" d="M1723 1852c-79,33 -106,75 -84,127 25,59 85,38 149,19 103,-31 130,-73 116,-124 -19,-72 -102,-55 -181,-22z"/>
   </g>
   <g id="telo">
    <path class="fil18" d="M1737 1992c2,148 103,217 238,225 154,9 212,-55 241,-151 48,-162 -38,-300 -222,-303 -131,-2 -259,40 -257,230z"/>
    <path class="fil19" d="M1763 2105c39,71 117,107 211,112 154,9 212,-55 241,-151 48,-162 -38,-300 -222,-303 -3,0 -5,0 -8,0 55,253 -10,416 -222,342z"/>
    <path class="fil20" d="M2213 1893c-31,-77 -107,-129 -219,-131 -92,-1 -182,19 -227,96 107,64 257,80 446,35z"/>
    <path class="fil17 str0" d="M1737 1992c2,148 103,217 238,225 154,9 212,-55 241,-151 48,-162 -38,-300 -222,-303 -131,-2 -259,40 -257,230z"/>
   </g>
   <g id="hlava">
    <path class="fil16" d="M1486 1214c27,-106 71,-131 136,-127 68,4 134,57 130,164 -4,96 -61,134 -150,139 -88,5 -152,-36 -117,-176z"/>
    <path class="fil19" d="M1560 1241c10,-40 34,-60 59,-58 26,1 49,20 48,61 -1,36 -35,71 -68,73 -33,2 -52,-23 -38,-75z"/>
    <path class="fil18" d="M1560 1241c5,-18 12,-33 22,-42 4,-1 9,-2 13,-1 26,1 49,20 48,61 -1,21 -12,41 -28,55 -5,2 -11,3 -16,4 -33,2 -52,-23 -38,-75z"/>
    <path class="fil15" d="M1635 1088c55,8 106,49 116,126 -3,1 -5,2 -7,3l-1 1 0 0c-3,1 -5,2 -8,3l-1 0c-3,1 -5,2 -8,4l0 0 -1 1 0 0c-2,1 -4,2 -7,3l-2 1c-2,1 -4,2 -6,3 -1,1 -2,1 -3,2 -2,1 -3,2 -5,3 -1,1 -2,1 -3,2 -2,1 -3,2 -5,3 -1,1 -2,1 -4,2 -2,1 -3,2 -5,3 -1,1 -2,1 -4,2 -1,1 -3,2 -4,2 -1,1 -3,2 -4,2 -1,1 -3,2 -4,2 -1,1 -3,2 -4,2l0 0c1,-5 2,-9 2,-14 2,-40 -22,-59 -48,-61 -7,0 -15,1 -22,4 19,-29 30,-63 37,-99z"/>
    <path class="fil17 str0" d="M1486 1214c27,-106 71,-131 136,-127 68,4 134,57 130,164 -4,96 -61,134 -150,139 -88,5 -152,-36 -117,-176z"/>
    <path class="fil18" d="M1796 1197c96,-32 212,-37 319,-14 51,-120 157,-155 276,-44 58,54 88,152 26,228 -4,5 -8,10 -12,14 21,44 32,94 29,151 -11,221 -169,339 -465,316 -293,-22 -418,-143 -446,-265 -41,-177 54,-315 273,-387z"/>
    <path class="fil16 str1" d="M1536 1624c-5,-13 -10,-27 -13,-40 -25,-109 1,-203 76,-276 17,-6 36,-9 57,-6 49,7 71,48 70,116 0,101 -58,158 -143,192 -17,7 -33,11 -47,13z"/>
    <path class="fil18" d="M1676 1490c-9,-31 -37,-51 -62,-44 -25,7 -39,39 -30,70 9,31 40,51 61,44 21,-7 40,-39 31,-70z"/>
    <path class="fil21" d="M1639 1561c2,0 4,-1 6,-1 13,-5 26,-18 31,-36 0,-4 -1,-8 -3,-12 -7,-21 -26,-33 -42,-27 -16,6 -23,29 -16,50 4,13 14,23 23,27z"/>
    <ellipse class="fil18" transform="matrix(0.111763 0.331039 -0.305878 0.120957 1637.04 1501.56)" rx="41" ry="33"/>
    <path class="fil17 str1" d="M1676 1490c-9,-31 -37,-51 -62,-44 -25,7 -39,39 -30,70 9,31 40,51 61,44 21,-7 40,-39 31,-70z"/>
    <path class="fil21" d="M1734 1551c-99,-5 -97,84 -5,92 106,9 105,-87 5,-92z"/>
    <path class="fil18" d="M1728 1588c-62,-2 -30,-25 3,-26 32,-1 59,28 -3,26z"/>
    <path class="fil17 str2" d="M1685 1668c20,49 106,74 138,3"/>
    <path class="fil19" d="M2405 1381c4,-4 8,-9 12,-14 62,-76 32,-174 -26,-228 -120,-111 -227,-75 -277,47 -1,33 15,61 32,80 18,325 -121,508 -392,540 59,21 130,36 216,42 296,22 454,-95 465,-316 3,-57 -8,-108 -29,-151zm-232 -136c-2,21 1,47 18,72 92,12 114,-72 115,-149 0,-14 -55,-37 -75,-24 -36,23 -60,100 -58,100z"/>
    <path class="fil17 str3" d="M2405 1381c21,44 32,94 29,151 -11,221 -169,339 -465,316 -293,-22 -418,-143 -446,-265 -41,-177 54,-315 273,-387 96,-32 212,-37 319,-14"/>
    <path class="fil16" d="M1783 1427c5,-122 88,-165 246,-97 90,39 156,112 160,211 3,82 -47,120 -154,119 -156,-2 -258,-83 -252,-233z"/>
    <path class="fil15" d="M2142 1413c28,35 45,78 47,127 3,79 -43,117 -141,119 51,-63 83,-145 94,-246z"/>
    <path class="fil17 str1" d="M1783 1427c5,-122 88,-165 246,-97 90,39 156,112 160,211 3,82 -47,120 -154,119 -156,-2 -258,-83 -252,-233z"/>
    <path class="fil18" d="M1927 1526c13,-34 4,-69 -25,-80 -28,-11 -62,8 -75,42 -13,34 -1,70 27,81 28,11 59,-9 72,-43z"/>
    <path class="fil21" d="M1822 1507c-3,25 7,49 27,60 13,-1 26,-9 35,-23 14,-22 11,-48 -5,-59 -16,-11 -41,-3 -54,18 -1,1 -2,3 -3,4z"/>
    <ellipse class="fil17" transform="matrix(-0.190103 0.30176 -0.287871 -0.199275 1867.18 1500.65)" rx="47" ry="37"/>
    <ellipse class="fil18" transform="matrix(-0.190103 0.30176 -0.287871 -0.199275 1867.18 1500.65)" rx="47" ry="37"/>
    <path class="fil17 str1" d="M1927 1526c13,-34 4,-69 -25,-80 -28,-11 -62,8 -75,42 -13,34 -1,70 27,81 28,11 59,-9 72,-43z"/>
    <path class="fil15" d="M2281 1427c56,8 94,-7 136,-60 62,-76 32,-174 -26,-228 -120,-111 -227,-75 -277,47 -3,68 67,112 67,112 -2,-99 79,-150 128,-88 37,52 11,133 -104,139 3,26 13,65 76,78z"/>
    <path class="fil17 str0" d="M2205 1348c3,26 13,65 76,78 56,8 94,-7 136,-60 62,-76 32,-174 -26,-228 -120,-111 -227,-75 -277,47"/>
   </g>
  </g>
 </g>
</svg>
