<svg xmlns="http://www.w3.org/2000/svg" xml:space="preserve" version="1.1" viewBox="0 0 9936 13196" xmlns:xlink="http://www.w3.org/1999/xlink">
 <defs>
  <style type="text/css">
   <![CDATA[
    .str1 {stroke:black;stroke-width:100}
    .str2 {stroke:black;stroke-width:100;stroke-linecap:round}
    .str0 {stroke:black;stroke-width:180}
    .str3 {stroke:black;stroke-width:180;stroke-linecap:round}
    .fil2 {fill:none}
    .fil6 {fill:#121212}
    .fil0 {fill:#212121}
    .fil1 {fill:#2B2B2B}
    .fil5 {fill:#CBCBCB}
    .fil4 {fill:#DADADA}
    .fil3 {fill:#EBEBEB}
   ]]>
  </style>
 </defs>
 <g id="Layer_x0020_1">
  <metadata id="CorelCorpID_0Corel-Layer"/>
  <g id="mimo">
   <g id="leva_noha">
    <path class="fil0 str0" d="M7077 10212c13,201 87,395 189,595 229,449 451,902 676,1352 177,354 147,612 -460,866 -826,345 -1464,-461 -1623,-1515 -124,-824 221,-1341 703,-1569 347,-164 495,-27 514,270z"/>
    <path class="fil0" d="M7077 10212c13,201 87,395 189,595 229,449 451,902 676,1352 177,354 147,612 -460,866 -826,345 -1464,-461 -1623,-1515 -124,-824 221,-1341 703,-1569 347,-164 495,-27 514,270z"/>
    <path class="fil1" d="M7295 10863c219,431 432,864 648,1296 177,354 147,612 -460,866 -679,284 -1232,-212 -1495,-983 542,34 911,-97 1307,-1178z"/>
    <path class="fil2 str0" d="M7077 10212c13,201 87,395 189,595 229,449 451,902 676,1352 177,354 147,612 -460,866 -826,345 -1464,-461 -1623,-1515 -124,-824 221,-1341 703,-1569 347,-164 495,-27 514,270z"/>
   </g>
   <g id="prava_noha">
    <path class="fil0 str0" d="M4802 10504c-117,148 -187,330 -242,534 -123,457 -253,911 -379,1367 -99,358 -282,519 -864,314 -792,-279 -730,-1242 -179,-2075 432,-652 997,-795 1476,-651 345,104 361,293 188,511z"/>
    <path class="fil0" d="M4802 10504c-117,148 -187,330 -242,534 -123,457 -253,911 -379,1367 -99,358 -282,519 -864,314 -792,-279 -730,-1242 -179,-2075 432,-652 997,-795 1476,-651 345,104 361,293 188,511z"/>
    <path class="fil1" d="M4342 11827c-54,193 -108,385 -161,578 -99,358 -282,519 -864,314 -632,-222 -720,-881 -450,-1561 339,458 769,615 1475,670z"/>
    <path class="fil2 str0" d="M4802 10504c-117,148 -187,330 -242,534 -123,457 -253,911 -379,1367 -99,358 -282,519 -864,314 -792,-279 -730,-1242 -179,-2075 432,-652 997,-795 1476,-651 345,104 361,293 188,511z"/>
   </g>
   <g id="leva_ruka">
    <path class="fil0 str0" d="M7997 8211c-914,-574 -1970,-123 -1055,1001 324,398 1210,978 1636,371 256,-363 400,-756 -581,-1372z"/>
    <path class="fil0" d="M7997 8211c-914,-574 -1970,-123 -1055,1001 324,398 1210,978 1636,371 256,-363 400,-756 -581,-1372z"/>
    <path class="fil1" d="M7422 9623c389,242 874,362 1157,-41 214,-304 350,-629 -188,-1088 -548,91 -871,444 -969,1129z"/>
    <path class="fil2 str0" d="M7997 8211c-914,-574 -1970,-123 -1055,1001 324,398 1210,978 1636,371 256,-363 400,-756 -581,-1372z"/>
   </g>
   <g id="prava_ruka">
    <path class="fil0 str0" d="M2560 7886c-790,331 -1063,747 -838,1271 254,592 853,382 1488,189 1033,-314 1302,-726 1163,-1244 -193,-723 -1020,-548 -1812,-216z"/>
    <path class="fil0" d="M2560 7886c-790,331 -1063,747 -838,1271 254,592 853,382 1488,189 1033,-314 1302,-726 1163,-1244 -193,-723 -1020,-548 -1812,-216z"/>
    <path class="fil1" d="M2100 8126c-428,286 -552,627 -379,1031 218,508 689,426 1219,271 -54,-750 -335,-1160 -840,-1302z"/>
    <path class="fil2 str0" d="M2560 7886c-790,331 -1063,747 -838,1271 254,592 853,382 1488,189 1033,-314 1302,-726 1163,-1244 -193,-723 -1020,-548 -1812,-216z"/>
   </g>
   <g id="telo">
    <path class="fil3" d="M2696 9293c16,1484 1030,2166 2380,2245 1545,91 2124,-548 2408,-1515 476,-1620 -376,-3000 -2218,-3029 -1313,-21 -2590,403 -2569,2299z"/>
    <path class="fil4" d="M2961 10416c388,715 1169,1066 2114,1121 1545,91 2124,-548 2408,-1515 476,-1620 -376,-3000 -2218,-3029 -27,0 -54,-1 -80,-1 553,2527 -103,4165 -2223,3423z"/>
    <path class="fil5" d="M7454 8305c-310,-772 -1065,-1293 -2189,-1311 -920,-15 -1822,189 -2273,964 1068,644 2574,804 4462,347z"/>
    <path class="fil2 str0" d="M2696 9293c16,1484 1030,2166 2380,2245 1545,91 2124,-548 2408,-1515 476,-1620 -376,-3000 -2218,-3029 -1313,-21 -2590,403 -2569,2299z"/>
   </g>
   <g id="hlava">
    <path class="fil1" d="M189 1507c267,-1055 707,-1308 1362,-1273 682,36 1345,573 1303,1643 -38,964 -611,1339 -1495,1392 -884,53 -1523,-364 -1170,-1762z"/>
    <path class="fil4" d="M929 1778c101,-399 341,-598 588,-585 258,14 493,202 477,606 -14,364 -349,713 -683,733 -334,20 -516,-226 -383,-754z"/>
    <path class="fil3" d="M929 1778c47,-185 123,-326 217,-424 43,-11 87,-16 131,-13 258,14 493,202 477,606 -8,208 -121,411 -278,550 -54,20 -109,32 -164,35 -334,20 -516,-226 -383,-754z"/>
    <path class="fil0" d="M1675 246c553,79 1065,493 1164,1260 -25,10 -50,20 -75,31l-15 6 -2 1c-27,11 -54,23 -81,35l-8 4c-27,12 -54,24 -80,36l-2 1 -14 6 0 0c-22,10 -44,21 -66,31l-22 11c-21,10 -41,20 -61,30 -10,5 -21,10 -31,15 -17,9 -35,18 -52,26 -11,6 -22,12 -33,17 -17,9 -33,17 -49,26 -12,6 -23,13 -35,19 -15,8 -30,17 -45,25 -12,7 -24,13 -35,20 -14,8 -28,16 -42,24 -13,8 -26,15 -38,23 -13,8 -26,16 -39,23 -13,8 -26,16 -39,24l0 0c12,-47 20,-94 22,-142 16,-404 -220,-592 -477,-606 -74,-4 -147,11 -216,45 193,-289 300,-632 374,-992z"/>
    <path class="fil2 str0" d="M189 1507c267,-1055 707,-1308 1362,-1273 682,36 1345,573 1303,1643 -38,964 -611,1339 -1495,1392 -884,53 -1523,-364 -1170,-1762z"/>
    <path class="fil3" d="M3291 1341c960,-315 2120,-367 3186,-142 511,-1197 1567,-1546 2763,-445 585,539 882,1518 264,2283 -41,51 -82,99 -123,143 212,436 321,940 292,1514 -109,2215 -1691,3386 -4652,3164 -2926,-219 -4184,-1434 -4463,-2651 -406,-1771 537,-3147 2732,-3867z"/>
    <path class="fil1 str1" d="M687 5607c-55,-132 -97,-265 -128,-398 -249,-1088 11,-2027 757,-2756 174,-63 362,-85 568,-56 486,68 706,478 703,1163 -4,1013 -575,1585 -1433,1920 -173,68 -328,110 -467,128z"/>
    <path class="fil3" d="M2086 4269c-90,-315 -369,-511 -624,-438 -255,73 -389,387 -299,702 90,315 399,511 609,438 210,-73 403,-387 313,-702z"/>
    <path class="fil6" d="M1718 4984c19,-2 37,-7 55,-13 131,-45 256,-185 309,-359 -4,-41 -12,-83 -26,-124 -72,-213 -258,-334 -416,-272 -158,63 -228,286 -156,498 45,133 135,231 235,270z"/>
    <ellipse class="fil3" transform="matrix(0.111763 0.331039 -0.305878 0.120957 1698.88 4385.45)" rx="410" ry="330"/>
    <path class="fil2 str1" d="M2086 4269c-90,-315 -369,-511 -624,-438 -255,73 -389,387 -299,702 90,315 399,511 609,438 210,-73 403,-387 313,-702z"/>
    <path class="fil6" d="M2669 4884c-989,-50 -967,843 -54,920 1065,89 1046,-870 54,-920z"/>
    <path class="fil3" d="M2608 5246c-620,-22 -302,-252 29,-259 317,-7 590,280 -29,259z"/>
    <path class="fil2 str2" d="M2182 6047c195,487 1058,740 1379,27"/>
    <path class="fil4" d="M9382 3180c40,-44 81,-92 122,-142 618,-765 321,-1744 -264,-2283 -1204,-1109 -2267,-748 -2774,471 -12,334 148,610 316,804 179,3248 -1206,5085 -3921,5405 589,211 1303,361 2161,425 2961,222 4543,-950 4652,-3164 28,-575 -80,-1079 -292,-1515zm-2315 -1364c-18,205 8,468 185,724 919,120 1143,-723 1151,-1485 1,-141 -550,-374 -752,-241 -356,234 -600,1003 -583,1003z"/>
    <path class="fil2 str3" d="M9382 3181c211,435 319,939 291,1514 -109,2215 -1691,3386 -4652,3164 -2926,-219 -4184,-1434 -4463,-2651 -406,-1771 537,-3147 2732,-3867 960,-315 2119,-367 3185,-142"/>
    <path class="fil1" d="M3155 3640c52,-1217 875,-1649 2461,-974 904,385 1560,1123 1596,2110 29,821 -470,1204 -1542,1190 -1564,-20 -2579,-829 -2515,-2326z"/>
    <path class="fil0" d="M6746 3502c278,355 449,783 467,1273 28,787 -429,1171 -1410,1190 508,-630 826,-1452 944,-2463z"/>
    <path class="fil2 str1" d="M3155 3640c52,-1217 875,-1649 2461,-974 904,385 1560,1123 1596,2110 29,821 -470,1204 -1542,1190 -1564,-20 -2579,-829 -2515,-2326z"/>
    <path class="fil3" d="M4594 4628c131,-339 37,-688 -245,-797 -283,-109 -618,78 -748,417 -131,339 -8,703 275,812 283,109 588,-93 719,-432z"/>
    <path class="fil6" d="M3553 4437c-30,254 73,493 269,599 127,-11 260,-95 348,-234 135,-215 113,-481 -50,-594 -163,-113 -406,-30 -541,185 -9,15 -18,29 -25,44z"/>
    <ellipse class="fil2" transform="matrix(-0.190103 0.30176 -0.287871 -0.199275 4000.34 4376.32)" rx="470" ry="374"/>
    <ellipse class="fil3" transform="matrix(-0.190103 0.30176 -0.287871 -0.199275 4000.34 4376.32)" rx="470" ry="374"/>
    <path class="fil2 str1" d="M4594 4628c131,-339 37,-688 -245,-797 -283,-109 -618,78 -748,417 -131,339 -8,703 275,812 283,109 588,-93 719,-432z"/>
    <path class="fil0" d="M8140 3639c560,80 935,-71 1364,-601 618,-765 321,-1744 -264,-2283 -1204,-1109 -2267,-748 -2774,471 -25,683 672,1120 672,1120 -25,-994 791,-1505 1285,-883 375,517 107,1329 -1044,1392 27,259 134,651 762,784z"/>
    <path class="fil2 str0" d="M7378 2854c27,259 134,651 762,784 560,80 935,-71 1364,-601 618,-765 321,-1744 -264,-2283 -1204,-1109 -2267,-748 -2774,471"/>
   </g>
  </g>
 </g>
</svg>
